{"title":"Divergent (2014) 1080p x264 AAC 2.0 eXiLiO","uid":10615927,"size":3271845647,"categoryP":"video","categoryS":"hd___movies","magnet":"?xt=urn:btih:5071e17ff72aa7e81f0c6c2ff152297bb8773cf2&amp;dn=Divergent+%282014%29+1080p+x264+AAC+2.0+eXiLiO&amp;tr=udp%3A%2F%2Ftracker.openbittorrent.com%3A80&amp;tr=udp%3A%2F%2Fopen.demonii.com%3A1337&amp;tr=udp%3A%2F%2Ftracker.coppersurfer.tk%3A6969&amp;tr=udp%3A%2F%2Fexodus.desync.com%3A6969","seeders":1,"leechers":0,"uploader":"invisiblexninjas","files":-1,"time":1406112813,"description":"VIDEO\nID                                       : 1\nFormat                                   : AVC\nFormat/Info                              : Advanced Video Codec\nFormat profile                           : &lt;a class=&quot;__cf_email__&quot; href=&quot;/cdn-cgi/l/email-protection&quot; data-cfemail=&quot;7b33121c133b374e554a&quot;&gt;[email&amp;#160;protected]&lt;/a&gt;&lt;script cf-hash='f9e31' type=&quot;text/javascript&quot;&gt;\n/* &lt;![CDATA[ */!function(){try{var t=&quot;currentScript&quot;in document?document.currentScript:function(){for(var t=document.getElementsByTagName(&quot;script&quot;),e=t.length;e--;)if(t[e].getAttribute(&quot;cf-hash&quot;))return t[e]}();if(t&amp;&amp;t.previousSibling){var e,r,n,i,c=t.previousSibling,a=c.getAttribute(&quot;data-cfemail&quot;);if(a){for(e=&quot;&quot;,r=parseInt(a.substr(0,2),16),n=2;a.length-n;n+=2)i=parseInt(a.substr(n,2),16)^r,e+=String.fromCharCode(i);e=document.createTextNode(e),c.parentNode.replaceChild(e,c)}}}catch(u){}}();/* ]]&gt; */&lt;/script&gt;\nDuration                                 : 2h 19mn\nBit rate mode                            : Constant\nBit rate                                 : 2 900 Kbps\nWidth                                    : 1 920 pixels\nHeight                                   : 794 pixels\nDisplay aspect ratio                     : 2.40:1\nFrame rate mode                          : Constant\nFrame rate                               : 23.976 fps\nStandard                                 : NTSC\nScan type                                : Progressive\nStream size                              : 2.82 GiB (93%)\n\nAUDIO\nID                                       : 2\nFormat                                   : AAC\nFormat/Info                              : Advanced Audio Codec\nDuration                                 : 2h 19mn\nBit rate mode                            : Variable\nBit rate                                 : 225 Kbps\nMaximum bit rate                         : 277 Kbps\nChannel(s)                               : 2 channels\nChannel positions                        : Front: L R\nSampling rate                            : 48.0 KHz\nStream size                              : 225 MiB (7%)\nLanguage                                 : English\n\n\nSCREENS\n","torrent":{"xt":"urn:btih:5071e17ff72aa7e81f0c6c2ff152297bb8773cf2","amp;dn":"Divergent+%282014%29+1080p+x264+AAC+2.0+eXiLiO","amp;tr":["udp%3A%2F%2Ftracker.openbittorrent.com%3A80","udp%3A%2F%2Fopen.demonii.com%3A1337","udp%3A%2F%2Ftracker.coppersurfer.tk%3A6969","udp%3A%2F%2Fexodus.desync.com%3A6969"],"infoHash":"5071e17ff72aa7e81f0c6c2ff152297bb8773cf2","infoHashBuffer":{"type":"Buffer","data":[80,113,225,127,247,42,167,232,31,12,108,47,241,82,41,123,184,119,60,242]},"announce":[],"urlList":[]}}